# xmcd
#
# Track frame offsets:
#	150
#	10611
#	25477
#	37196
#	46417
#	58743
#	70815
#	84499
#	97950
#	106720
#	115910
#	134881
#	144923
#	159210
#	169980
#	181995
#	192579
#	200382
#	212401
#	224022
#	235465
#	246253
#	258678
#	269117
#	279768
#	295851
#	304683
#
# Disc length: 4199 seconds
# Revision: 0
# Processed by: cddbd v1.5.2PL0 Copyright (c) Steve Scherf et al.
# Submitted via: dBpowerAMP V12.0
#
DISCID=9a10651b
DTITLE=Mickey Baker - Essential Bluse Masters
DYEAR=2010
DGENRE=Blues
TTITLE0=My Baby's Gone Away
TTITLE1=Wee Hours
TTITLE2=Back Room Rock
TTITLE3=Chicken Strut
TTITLE4=Pack Up and Boogie
TTITLE5=After Hours Swing
TTITLE6=Midnight Hours
TTITLE7=No Good Lover
TTITLE8=Roll 'Em Sam
TTITLE9=Boogie Woogie Slop
TTITLE10=New Orleans Blues
TTITLE11=Bar-B-Que Sauce
TTITLE12=Tishomingo
TTITLE13=Juke Joint
TTITLE14=Rib Joint
TTITLE15=Rib Joint 2
TTITLE16=Kansas City Boogie Woogie Stomp
TTITLE17=River Boat Dock
TTITLE18=Boogie Cha Cha
TTITLE19=Please Tell Me
TTITLE20=Ain't No Strain
TTITLE21=Honky Tonk Caboose
TTITLE22=Blue Drag
TTITLE23=The Saint's Boogie
TTITLE24=Sammy Sings the Blues
TTITLE25=Levee
TTITLE26=Ain't That Loving You Baby
EXTD=
EXTT0=
EXTT1=
EXTT2=
EXTT3=
EXTT4=
EXTT5=
EXTT6=
EXTT7=
EXTT8=
EXTT9=
EXTT10=
EXTT11=
EXTT12=
EXTT13=
EXTT14=
EXTT15=
EXTT16=
EXTT17=
EXTT18=
EXTT19=
EXTT20=
EXTT21=
EXTT22=
EXTT23=
EXTT24=
EXTT25=
EXTT26=
PLAYORDER=
